<svg width="21" height="20" viewBox="0 0 21 20" fill="none" xmlns="http://www.w3.org/2000/svg">
<path d="M4.22852 5.08348L4.9292 15.1473C5.00706 16.1137 5.73449 17.9613 7.59875 18.1685C9.46301 18.3756 13.2083 18.3292 13.8913 18.3292C14.5743 18.3292 16.3437 17.8447 16.3437 15.8382C16.3437 13.813 14.6524 13.2849 13.5894 13.3029H10.5458M10.5458 13.3029C10.5503 13.1245 10.6259 12.9477 10.7728 12.819L12.5722 11.2437M10.5458 13.3029C10.5411 13.4932 10.6173 13.6853 10.7747 13.822L12.5722 15.3841M16.7248 4.85352L16.3349 11.2327" stroke="#616161" stroke-width="1.25" stroke-linecap="round" stroke-linejoin="round"/>
<path d="M3 4.57976H18M13.8796 4.57976L13.3107 3.40767C12.9328 2.62909 12.7438 2.2398 12.4179 1.99701C12.3457 1.94315 12.2691 1.89525 12.189 1.85376C11.8281 1.66675 11.3949 1.66675 10.5286 1.66675C9.6405 1.66675 9.1965 1.66675 8.82957 1.86161C8.74826 1.90479 8.67066 1.95464 8.59758 2.01062C8.26787 2.26325 8.0837 2.66678 7.71535 3.47386L7.21061 4.57976" stroke="#616161" stroke-width="1.25" stroke-linecap="round" stroke-linejoin="round"/>
</svg>
