<svg width="29" height="28" viewBox="0 0 29 28" fill="none" xmlns="http://www.w3.org/2000/svg">
<path d="M23.25 22.75C23.25 24.3609 21.9441 25.6667 20.3333 25.6667C18.7225 25.6667 17.4166 24.3609 17.4166 22.75C17.4166 21.1392 18.7225 19.8334 20.3333 19.8334C21.9441 19.8334 23.25 21.1392 23.25 22.75Z" stroke="#757575" stroke-width="1.75"/>
<path d="M11.5833 22.75C11.5833 24.3609 10.2775 25.6667 8.66667 25.6667C7.05584 25.6667 5.75 24.3609 5.75 22.75C5.75 21.1392 7.05584 19.8334 8.66667 19.8334C10.2775 19.8334 11.5833 21.1392 11.5833 22.75Z" stroke="#757575" stroke-width="1.75"/>
<path d="M17.4166 22.75H11.5833M23.2499 22.75H24.1403C24.3969 22.75 24.5252 22.75 24.633 22.7366C25.428 22.6375 26.0541 22.0114 26.1532 21.2164C26.1666 21.1086 26.1666 20.9803 26.1666 20.7237V17.5C26.1666 13.3118 22.7715 9.91667 18.5833 9.91667M13.3333 7H14.4999C16.1498 7 16.9748 7 17.4874 7.51256C17.9999 8.02513 17.9999 8.85009 17.9999 10.5V20.4167M2.83325 14V19.8333C2.83325 20.9237 2.83325 21.4689 3.06771 21.875C3.2213 22.141 3.44222 22.362 3.70825 22.5155C4.11435 22.75 4.65953 22.75 5.74992 22.75" stroke="#757575" stroke-width="1.75" stroke-linecap="round" stroke-linejoin="round"/>
<path d="M9.65825 9.15837L8.08325 8.10837V5.48337M2.83325 7.58337C2.83325 10.4829 5.18376 12.8334 8.08325 12.8334C10.9827 12.8334 13.3333 10.4829 13.3333 7.58337C13.3333 4.68388 10.9827 2.33337 8.08325 2.33337C5.18376 2.33337 2.83325 4.68388 2.83325 7.58337Z" stroke="#757575" stroke-width="1.75" stroke-linecap="round" stroke-linejoin="round"/>
</svg>
