<svg width="29" height="28" viewBox="0 0 29 28" fill="none" xmlns="http://www.w3.org/2000/svg">
<path d="M24.0644 3.50275H4.93571C4.06009 3.50275 3.62228 3.50275 3.31914 3.70902C3.169 3.81118 3.04493 3.94621 2.95666 4.10352C2.77843 4.42113 2.82199 4.85021 2.90913 5.70835C3.05455 7.14069 3.12726 7.85686 3.50798 8.36889C3.69769 8.62405 3.93822 8.83844 4.21487 8.99898C4.77003 9.32115 5.50079 9.32115 6.9623 9.32115H22.0378C23.4992 9.32115 24.23 9.32115 24.7853 8.99898C25.0619 8.83844 25.3024 8.62405 25.4921 8.36889C25.8728 7.85686 25.9455 7.14069 26.091 5.70835C26.1781 4.85021 26.2217 4.42113 26.0434 4.10352C25.9552 3.94621 25.8311 3.81118 25.6809 3.70902C25.3778 3.50275 24.94 3.50275 24.0644 3.50275Z" stroke="#757575" stroke-width="1.75" stroke-linecap="round" stroke-linejoin="round"/>
<path d="M12.1667 12.836H16.8334" stroke="#757575" stroke-width="1.75" stroke-linecap="round"/>
<path d="M17.4634 18.6413L20.6448 18.5795C21.9123 18.5562 24.4214 18.8672 24.4214 21.4987C24.4214 24.2292 21.7978 24.4973 20.6155 24.4973C19.4332 24.4973 12.1108 24.4973 9.89418 24.4973C7.41127 24.4973 4.00462 23.9472 4.00464 19.262V9.32922M17.4634 18.6413C17.4688 18.4095 17.559 18.1797 17.7341 18.0126L19.7334 16.3166M17.4634 18.6413C17.4577 18.8887 17.5487 19.1382 17.7363 19.3158L19.7334 20.9659M24.9781 9.32922V15.1952" stroke="#757575" stroke-width="1.75" stroke-linecap="round" stroke-linejoin="round"/>
</svg>
