<svg width="29" height="28" viewBox="0 0 29 28" fill="none" xmlns="http://www.w3.org/2000/svg">
<path d="M15.0834 25.6667H13.2038C8.31511 25.6667 5.87079 25.6667 4.35208 24.2022C2.83337 22.7378 2.83337 20.3808 2.83337 15.6667V9.33337H26.1667V12.25" stroke="#757575" stroke-width="1.75" stroke-linecap="round" stroke-linejoin="round"/>
<path d="M21.5 14C18.9228 14 16.8334 16.1104 16.8334 18.7137C16.8334 20.2024 17.4167 21.3597 18.5834 22.3936C19.4058 23.1223 20.402 24.3327 21 25.3138C21.2869 25.7843 21.6925 25.7843 22.0001 25.3138C22.6284 24.3522 23.5943 23.1223 24.4167 22.3936C25.5834 21.3597 26.1667 20.2024 26.1667 18.7137C26.1667 16.1104 24.0773 14 21.5 14Z" stroke="#757575" stroke-width="1.75" stroke-linejoin="round"/>
<path d="M21.5 18.6667H21.5113" stroke="#757575" stroke-width="2.33333" stroke-linecap="round" stroke-linejoin="round"/>
<path d="M2.83337 9.33337L3.95517 6.64107C4.82518 4.55304 5.26019 3.50902 6.14192 2.9212C7.02366 2.33337 8.15468 2.33337 10.4167 2.33337H18.5834C20.8454 2.33337 21.9764 2.33337 22.8582 2.9212C23.7399 3.50902 24.1749 4.55304 25.045 6.64107L26.1667 9.33337" stroke="#757575" stroke-width="1.75" stroke-linecap="round"/>
<path d="M14.5 9.33337V2.33337" stroke="#757575" stroke-width="1.75" stroke-linecap="round"/>
<path d="M12.1666 14H14.5" stroke="#757575" stroke-width="1.75" stroke-linecap="round"/>
</svg>
